<svg id="Layer_2_1_" xmlns="http://www.w3.org/2000/svg" width="40.538" height="39.525" viewBox="0 0 40.538 39.525">
  <g id="Surfaces" transform="translate(0 0)">
    <g id="Photo_Surface">
      <g id="Outline_no_shadow">
        <path id="Path_400" data-name="Path 400" d="M7.179,0H33.36a7.173,7.173,0,0,1,7.179,7.179V32.346a7.173,7.173,0,0,1-7.179,7.179H7.179A7.173,7.173,0,0,1,0,32.346V7.179A7.173,7.173,0,0,1,7.179,0Z" transform="translate(0 0)" fill="#001e36"/>
      </g>
    </g>
  </g>
  <g id="Outlined_Mnemonics_Logos" transform="translate(9.121 10.05)">
    <g id="Ps">
      <path id="Path_401" data-name="Path 401" d="M54,77.168V59.787c0-.118.051-.186.169-.186.287,0,.557,0,.946-.017.405-.017.828-.017,1.284-.034s.946-.017,1.47-.034,1.03-.017,1.537-.017a9.932,9.932,0,0,1,3.48.524,6.032,6.032,0,0,1,2.263,1.385,5.378,5.378,0,0,1,1.233,1.926,6.465,6.465,0,0,1,.388,2.2,6.039,6.039,0,0,1-1.013,3.6,5.787,5.787,0,0,1-2.719,2.061,10.947,10.947,0,0,1-3.8.574c-.405,0-.676,0-.845-.017s-.405-.017-.726-.017v5.422a.21.21,0,0,1-.186.236H54.2C54.068,77.388,54,77.32,54,77.168Zm3.682-14.307v5.675c.236.017.456.034.659.034h.9a6.309,6.309,0,0,0,1.942-.3,2.9,2.9,0,0,0,1.385-.9,2.61,2.61,0,0,0,.524-1.74,2.78,2.78,0,0,0-.388-1.5,2.449,2.449,0,0,0-1.182-.963,4.956,4.956,0,0,0-1.993-.338c-.439,0-.828,0-1.149.017a3.868,3.868,0,0,0-.693.017Z" transform="translate(-54 -59.5)" fill="#31a8ff"/>
      <path id="Path_402" data-name="Path 402" d="M149.022,88.117a5.978,5.978,0,0,0-1.622-.574,8.9,8.9,0,0,0-1.892-.22,3.4,3.4,0,0,0-1.013.118.867.867,0,0,0-.524.338.9.9,0,0,0-.135.456.751.751,0,0,0,.169.439,1.906,1.906,0,0,0,.574.456c.388.2.794.388,1.2.557a12.234,12.234,0,0,1,2.6,1.233,3.93,3.93,0,0,1,1.334,1.4,3.646,3.646,0,0,1,.389,1.74,3.93,3.93,0,0,1-.659,2.246,4.233,4.233,0,0,1-1.892,1.5,7.739,7.739,0,0,1-3.057.541,11.635,11.635,0,0,1-2.3-.22,6.814,6.814,0,0,1-1.723-.541.332.332,0,0,1-.186-.321V94.333a.183.183,0,0,1,.068-.152.129.129,0,0,1,.152.017,7.231,7.231,0,0,0,2.094.828,7.863,7.863,0,0,0,1.993.253,3.224,3.224,0,0,0,1.4-.236.785.785,0,0,0,.456-.709.9.9,0,0,0-.405-.676,7.163,7.163,0,0,0-1.655-.794,10.335,10.335,0,0,1-2.4-1.216,4.374,4.374,0,0,1-1.284-1.436,3.624,3.624,0,0,1-.389-1.723,3.973,3.973,0,0,1,.574-2.044,4.164,4.164,0,0,1,1.774-1.554,6.55,6.55,0,0,1,2.99-.591,14.561,14.561,0,0,1,2.094.152,5.943,5.943,0,0,1,1.453.388.3.3,0,0,1,.169.152.849.849,0,0,1,.034.2v2.753a.208.208,0,0,1-.084.169A.45.45,0,0,1,149.022,88.117Z" transform="translate(-125.712 -80.111)" fill="#31a8ff"/>
    </g>
  </g>
</svg>
